PathFileType	4	(X/Y/Z)	HSS_walk3.trc
DataRate	CameraRate	NumFrames	NumMarkers	Units	OrigDataRate	OrigDataStartFrame	OrigNumFrames
120.0	120.0	7	44	mm	120.0	373	992
Frame#	Time		R.Shoulder		Offset		L.Shoulder		R.Elbow		R.Wrist.Radial		R.Wrist		R.Hand		L.Elbow		L.Wrist.Radial		L.Wrist		L.Hand		R.Hip		V.Sacral		L.PSIS		L.Hip		R.Thigh.Upper		R.Thigh.Front		R.Thigh.Rear		X.Shell.Lower.Thigh.Right		R.Knee.Lateral		R.Shank.Upper		R.Shank.Front		R.Shank.Rear		X.Shell.Lower.Shank.Right		R.Ankle.Lateral		R.Heel		R.Toe		L.Thigh.Upper		L.Thigh.Front		L.Thigh.Rear		X.Shell.Lower.Thigh.Left		L.Knee.Lateral		L.Shank.Upper		L.Shank.Front		L.Shank.Rear		X.Shell.Lower.Shank.Left		L.Ankle.Lateral		L.Heel		L.Toe		R.Troc		L.Troc		R.PSIS		L.ASIS		R.ASIS
			X1	Y1	Z1	X2	Y2	Z2	X3	Y3	Z3	X4	Y4	Z4	X5	Y5	Z5	X6	Y6	Z6	X7	Y7	Z7	X8	Y8	Z8	X9	Y9	Z9	X10	Y10	Z10	X11	Y11	Z11	X12	Y12	Z12	X13	Y13	Z13	X14	Y14	Z14	X15	Y15	Z15	X16	Y16	Z16	X17	Y17	Z17	X18	Y18	Z18	X19	Y19	Z19	X20	Y20	Z20	X21	Y21	Z21	X22	Y22	Z22	X23	Y23	Z23	X24	Y24	Z24	X25	Y25	Z25	X26	Y26	Z26	X27	Y27	Z27	X28	Y28	Z28	X29	Y29	Z29	X30	Y30	Z30	X31	Y31	Z31	X32	Y32	Z32	X33	Y33	Z33	X34	Y34	Z34	X35	Y35	Z35	X36	Y36	Z36	X37	Y37	Z37	X38	Y38	Z38	X39	Y39	Z39	X40	Y40	Z40	X41	Y41	Z41	X42	Y42	Z42	X43	Y43	Z43	X44	Y44	Z44

373	3.10000	-1835.41931	1476.72473	-12.87342	-1935.00781	1380.67786	-303.71762	-1818.59033	1489.59705	-386.09149	-1845.55408	1109.39551	25.47518	-1730.44995	890.87036	78.91286	-1693.07678	901.73480	15.81837	-1677.19910	821.55566	70.91077	-1821.34497	1125.22986	-438.81082	-1674.21667	916.83875	-402.65536	-1697.16589	918.78027	-471.21793	-1649.26990	847.85431	-451.88446	-1782.20923	1037.88892	-51.02663	-1896.37793	1023.03052	-204.57704	-1892.99194	1028.84094	-245.05821	-1769.68982	1035.79773	-346.97379	-1748.36365	692.07446	-17.97905	-1716.99402	654.55090	-35.66290	-1772.98071	654.56934	-10.08058	-1747.28003	621.35455	-29.09289	-1812.89075	516.27240	-44.16793	-1829.75659	367.52347	0.98969	-1805.32715	323.52426	-24.41856	-1863.31592	332.55371	-10.04982	-1842.38647	291.75549	-20.89624	-1862.15344	69.89624	-72.34541	-1907.08691	32.69761	-121.01411	-1709.07288	32.41074	-73.18854	-1736.37708	688.72626	-365.43323	-1720.87939	638.62738	-341.20615	-1768.10571	654.66760	-379.71960	-1745.60474	618.49255	-365.75842	-1821.86963	506.54025	-346.62512	-1862.32800	306.43314	-385.65091	-1834.17310	282.96155	-365.61584	-1893.45996	268.45981	-371.28513	-1871.69714	237.39062	-372.28152	-1862.18835	72.39209	-322.93521	-1917.47119	34.55381	-276.79709	-1717.96130	32.27011	-312.53220	-1771.57056	879.29407	-13.60517	-1766.89111	889.67615	-385.57245	-1898.35486	1028.43970	-159.46591	-1707.66553	997.28564	-305.59833	-1721.40405	999.83344	-80.43122
374	3.10833	-1835.13147	1476.69568	-12.67491	-1934.53870	1380.79041	-303.70346	-1817.89026	1489.63074	-385.88501	-1845.38147	1109.35059	25.60636	-1730.36169	890.74182	79.07462	-1692.98499	901.63342	16.01570	-1677.14978	821.45288	71.09181	-1820.92883	1125.28455	-438.69128	-1673.73450	916.83899	-402.46423	-1696.83398	918.79645	-471.10190	-1648.96484	847.81226	-451.68790	-1782.08899	1038.00525	-50.90554	-1896.01160	1023.09979	-204.48878	-1892.63525	1028.91785	-244.96346	-1769.14404	1035.68262	-346.78168	-1748.11755	692.08618	-17.71912	-1716.61523	654.50104	-35.44896	-1772.60632	654.40271	-9.72656	-1746.85400	621.41675	-28.99965	-1812.20435	516.21375	-43.99368	-1829.06116	367.41928	0.87879	-1804.49573	323.45123	-24.69546	-1862.60913	332.51630	-10.07586	-1841.85828	291.72299	-21.05335	-1862.07898	69.93053	-72.34676	-1907.16687	32.67409	-121.03784	-1709.27100	32.60990	-73.06131	-1736.23389	688.63104	-365.40915	-1720.76599	638.54126	-341.24393	-1767.96558	654.62079	-379.66586	-1745.54639	618.41296	-365.79956	-1821.85596	506.52032	-346.74582	-1862.31067	306.37628	-385.71466	-1834.15381	282.91306	-365.68182	-1893.48413	268.45038	-371.35361	-1871.67078	237.34834	-372.35010	-1862.12134	72.30468	-322.93307	-1917.48877	34.52126	-276.85129	-1717.98389	32.29128	-312.57346	-1771.35962	879.38416	-13.42502	-1766.59875	889.60834	-385.42960	-1898.17554	1028.58423	-159.43448	-1707.35583	997.21478	-305.44904	-1721.42444	999.85748	-80.37722
375	3.11667	-1834.81250	1476.62878	-12.35911	-1934.14502	1380.83899	-303.53793	-1817.11304	1489.71973	-385.67068	-1845.24365	1109.29749	25.72459	-1730.31335	890.66504	79.29509	-1692.89648	901.46204	16.30652	-1677.13892	821.35992	71.39658	-1820.44141	1125.39941	-438.60376	-1673.44556	916.71259	-402.10455	-1696.40576	918.81323	-471.00998	-1648.59094	847.75439	-451.36258	-1781.91504	1038.10352	-50.76944	-1895.75281	1023.21735	-204.40735	-1892.36414	1029.03027	-244.88322	-1768.69214	1035.58606	-346.53366	-1747.61633	692.22162	-17.37127	-1716.11877	654.65820	-35.34597	-1772.02502	654.56720	-9.65747	-1746.41553	621.45660	-28.84544	-1811.48193	516.25781	-44.00221	-1828.15063	367.35437	0.86257	-1803.72400	323.35733	-25.05074	-1861.90369	332.52734	-10.12951	-1841.13110	291.73242	-21.19046	-1861.97668	69.89598	-72.32143	-1907.21960	32.63376	-121.09880	-1709.47534	32.83327	-73.05038	-1736.05151	688.57190	-365.39307	-1720.74329	638.44476	-341.13724	-1767.82629	654.56677	-379.65167	-1745.44324	618.32574	-365.77402	-1821.83069	506.49115	-346.83823	-1862.26270	306.34601	-385.81082	-1834.15417	282.88159	-365.74655	-1893.51208	268.45267	-371.46335	-1871.64197	237.34897	-372.41696	-1862.13037	72.31429	-323.00494	-1917.53845	34.49465	-276.93259	-1718.01587	32.31796	-312.65344	-1771.27759	879.40753	-13.19205	-1766.28735	889.50012	-385.23260	-1897.98328	1028.77185	-159.41856	-1707.00513	997.10010	-305.21652	-1721.34106	999.88312	-80.20181
376	3.12500	-1834.45410	1476.59314	-12.12542	-1933.47461	1380.89221	-303.40860	-1816.45874	1489.75598	-385.47144	-1845.12415	1109.27600	25.80629	-1730.31055	890.61237	79.50926	-1692.76575	901.42261	16.52456	-1677.12793	821.27563	71.69211	-1819.96948	1125.48181	-438.57919	-1673.42053	916.68372	-402.00290	-1696.02161	918.81812	-470.88184	-1648.27649	847.78223	-451.24603	-1781.70691	1038.24292	-50.62172	-1895.44556	1023.40265	-204.35054	-1892.04663	1029.22607	-244.77083	-1768.15356	1035.47742	-346.31949	-1747.13660	692.26721	-17.13234	-1715.49524	654.75677	-35.15458	-1771.44299	654.54791	-9.35531	-1745.59729	621.48889	-28.66269	-1810.30945	516.22498	-44.14311	-1827.13806	367.22748	0.67472	-1802.95728	323.22137	-25.15298	-1860.84302	332.46677	-10.29777	-1840.13025	291.61273	-21.40846	-1861.91443	69.92949	-72.35671	-1907.25256	32.61672	-121.15150	-1709.62634	33.06419	-73.01331	-1735.88757	688.47833	-365.32742	-1720.64099	638.30884	-341.11310	-1767.69275	654.48322	-379.61926	-1745.38428	618.21979	-365.76471	-1821.81140	506.47397	-346.93918	-1862.22876	306.36438	-385.85333	-1834.14282	282.83636	-365.75122	-1893.53613	268.46509	-371.57510	-1871.64233	237.33286	-372.52469	-1862.03418	72.25842	-323.07050	-1917.55786	34.44500	-277.00269	-1718.09924	32.39102	-312.65189	-1771.14893	879.45593	-12.96951	-1765.84949	889.45734	-385.13950	-1897.69153	1028.91553	-159.35854	-1706.67322	997.01678	-304.98090	-1720.70142	1000.13007	-79.86002
377	3.13333	-1834.16125	1476.57336	-11.91498	-1933.03699	1381.01892	-303.35822	-1815.96790	1489.85400	-385.31931	-1845.02515	1109.27856	25.85210	-1730.20264	890.58447	79.59712	-1692.72473	901.34137	16.82719	-1677.18005	821.20331	72.02641	-1819.47656	1125.59412	-438.49664	-1672.99963	916.67896	-401.87659	-1695.65967	918.84821	-470.74020	-1647.93738	847.78076	-451.03214	-1781.63794	1038.42700	-50.41573	-1895.14331	1023.58679	-204.30923	-1891.74500	1029.37732	-244.70233	-1767.78394	1035.42554	-346.21808	-1746.59607	692.37030	-16.75168	-1714.86853	654.86255	-34.86008	-1770.71033	654.46283	-9.13031	-1744.74084	621.54816	-28.39332	-1809.17310	516.15588	-44.21365	-1825.92554	367.11459	0.32520	-1801.81836	323.05774	-25.43758	-1859.72949	332.43259	-10.25344	-1839.24902	291.50320	-21.47382	-1861.82434	69.92912	-72.37804	-1907.27661	32.59682	-121.23273	-1709.81384	33.30084	-73.06737	-1735.77039	688.33716	-365.23865	-1720.52832	638.13263	-340.90402	-1767.53113	654.38379	-379.54666	-1745.28394	618.13965	-365.67889	-1821.84534	506.42892	-346.96790	-1862.09692	306.30334	-385.92322	-1834.03076	282.76535	-365.65396	-1893.43555	268.43698	-371.70932	-1871.49561	237.30893	-372.57394	-1861.94324	72.27600	-323.24493	-1917.63208	34.39519	-277.07883	-1718.11609	32.53006	-312.84503	-1771.02771	879.55927	-12.71088	-1765.48279	889.38080	-384.92960	-1897.42981	1029.21179	-159.26631	-1706.21960	996.92108	-304.63440	-1720.31177	1000.25024	-79.47156
378	3.14167	-1833.80725	1476.61365	-11.72072	-1932.42517	1381.13672	-303.31494	-1815.39099	1489.86865	-385.18936	-1844.93713	1109.26770	25.90172	-1730.13550	890.52509	79.81452	-1692.61572	901.34039	17.08811	-1677.19385	821.15936	72.27458	-1818.95129	1125.72852	-438.39774	-1672.92920	916.66138	-401.80688	-1695.22937	918.90607	-470.64996	-1647.62598	847.78296	-450.93011	-1781.46448	1038.66797	-50.19190	-1894.78418	1023.81982	-204.20630	-1891.37744	1029.60791	-244.63391	-1767.46118	1035.42883	-346.11026	-1745.96228	692.39972	-16.45831	-1714.03564	655.01093	-34.55131	-1769.97559	654.23291	-8.68981	-1743.89502	621.56555	-27.96695	-1807.89868	516.03711	-44.16067	-1824.58838	367.02963	0.16681	-1800.76685	322.79526	-25.77854	-1858.53064	332.40491	-10.28851	-1838.19629	291.35040	-21.72181	-1861.74719	69.95093	-72.39362	-1907.29980	32.57470	-121.31355	-1710.04749	33.51656	-73.11187	-1735.60022	688.23114	-365.04590	-1720.37854	638.00494	-340.80948	-1767.41479	654.31848	-379.36877	-1745.17029	618.03162	-365.64294	-1821.80884	506.39438	-346.98456	-1861.74780	306.25491	-385.94177	-1833.85083	282.77982	-365.49713	-1893.15454	268.37711	-371.82040	-1871.17932	237.22255	-372.54465	-1861.89624	72.34343	-323.37433	-1917.74121	34.33133	-277.15518	-1718.27405	32.75007	-312.98505	-1770.99048	879.72980	-12.49123	-1765.12085	889.25214	-384.74091	-1897.24182	1029.48535	-159.16344	-1705.73669	996.75946	-304.34412	-1720.48022	1000.27527	-79.17795
379	3.15000	-1833.41357	1476.58386	-11.51009	-1931.88318	1381.26538	-303.15536	-1814.45923	1490.03259	-384.87503	-1844.85510	1109.28247	25.98920	-1730.13110	890.48413	80.06148	-1692.49744	901.34503	17.34490	-1677.18286	821.15289	72.47412	-1818.33264	1125.93945	-438.26944	-1672.73511	916.70105	-401.69839	-1694.76074	918.95807	-470.45648	-1647.34229	847.81757	-450.81180	-1781.21045	1038.91602	-49.99902	-1894.48975	1024.10229	-204.10449	-1891.03125	1029.85913	-244.48999	-1767.08606	1035.41003	-345.97534	-1745.32947	692.44727	-16.14018	-1713.14465	655.22266	-34.00359	-1769.24475	654.17603	-8.31186	-1742.89954	621.55103	-27.47758	-1806.58374	516.00299	-43.98816	-1823.15186	366.74924	0.04728	-1799.33533	322.42761	-26.37633	-1857.25696	332.12665	-10.51781	-1836.98230	291.15289	-21.94680	-1861.68713	69.95171	-72.36909	-1907.33374	32.56134	-121.37460	-1710.27234	33.72973	-73.17983	-1735.39917	688.03326	-364.73209	-1720.23340	637.86279	-340.68549	-1767.24854	654.25293	-379.29196	-1745.04553	617.92603	-365.43427	-1821.73364	506.36823	-346.94458	-1861.37769	306.28204	-385.84637	-1833.59375	282.72263	-365.27286	-1892.81299	268.30792	-371.88623	-1870.77234	237.15958	-372.55115	-1861.80054	72.22238	-323.47900	-1917.83032	34.26571	-277.23654	-1718.41589	32.99673	-313.22751	-1771.03979	879.86591	-12.26645	-1764.70630	889.17017	-384.57593	-1897.03992	1029.76514	-159.11212	-1705.36194	996.60321	-304.06271	-1720.62500	1000.44781	-78.76978
